<svg xmlns="http://www.w3.org/2000/svg" viewBox="0 0 128 128" width="128" height="128">
  <ellipse cx="64" cy="118" rx="44" ry="8" fill="#7A9549" opacity="0.5"/>
  <g fill="#6D4A31">
    <ellipse cx="38" cy="108" rx="10" ry="6" transform="rotate(-18 38 108)"/>
    <ellipse cx="90" cy="108" rx="10" ry="6" transform="rotate(18 90 108)"/>
    <ellipse cx="64" cy="112" rx="34" ry="10"/>
  </g>
  <g fill="#E07A2E">
    <path d="M 64 96 C 52 80 48 62 64 36 C 80 62 76 80 64 96 Z"/>
  </g>
  <g fill="#FFC93A">
    <path d="M 64 88 C 58 76 56 66 64 52 C 72 66 70 76 64 88 Z"/>
  </g>
  <g fill="#FFF2B8">
    <path d="M 64 82 C 60 74 60 68 64 60 C 68 68 68 74 64 82 Z"/>
  </g>
</svg>
