<svg xmlns="http://www.w3.org/2000/svg" viewBox="0 0 160 104" width="160" height="104">
  <!-- Gemeinsame Schattenfläche, weich und abgesetzt -->
  <ellipse cx="76" cy="94" rx="62" ry="8" fill="#7A9549"/>
  <ellipse cx="77" cy="92.5" rx="59" ry="7" fill="#8FAB58"/>

  <!-- Großer Stein: Fundament, Mittelschicht, Deckel -->
  <path fill="#6E675D" d="M 34 86 L 24 68 L 40 54 L 92 50 L 114 66 L 108 86 Q 106 92 98 92 L 46 92 Q 38 92 34 86 Z"/>
  <path fill="#8B8478" d="M 34 84 L 26 68 L 42 56 L 90 52 L 110 66 L 105 84 Q 104 88 98 88 L 46 88 Q 38 88 34 84 Z"/>

  <path fill="#6E675D" d="M 36 62 L 30 46 L 48 32 L 86 30 L 102 44 L 98 62 Q 96 66 90 66 L 44 66 Q 38 66 36 62 Z"/>
  <path fill="#9A9287" d="M 36 60 L 32 46 L 49 34 L 85 32 L 99 44 L 95 60 Q 94 63 89 63 L 44 63 Q 38 63 36 60 Z"/>

  <path fill="#6E675D" d="M 42 40 L 40 30 L 54 20 L 76 20 L 88 30 L 86 40 Q 84 43 78 43 L 50 43 Q 44 43 42 40 Z"/>
  <path fill="#CFC9BE" d="M 42 38 L 41 30 L 55 22 L 75 22 L 85 30 L 83 38 Q 82 40 77 40 L 50 40 Q 44 40 42 38 Z"/>
  <path fill="#B5AEA1" d="M 42 38 L 41 30 L 48 25 L 58 36 Q 53 39 46 39 Q 43 39 42 38 Z"/>

  <!-- Riss auf der Mittelschicht -->
  <path fill="none" stroke="#6E675D" stroke-width="1.8" stroke-linecap="round" d="M 62 62 L 66 54 L 62 48"/>

  <!-- Kleiner Stein rechts -->
  <path fill="#6E675D" d="M 112 88 L 106 74 L 118 64 L 138 64 L 150 74 L 146 88 Q 144 92 138 92 L 120 92 Q 114 92 112 88 Z"/>
  <path fill="#9A9287" d="M 112 86 L 108 74 L 119 66 L 137 66 L 147 74 L 144 86 Q 143 89 138 89 L 120 89 Q 114 89 112 86 Z"/>
  <path fill="#6E675D" d="M 116 72 L 114 64 L 122 58 L 134 58 L 142 64 L 140 72 Q 139 74 135 74 L 121 74 Q 117 74 116 72 Z"/>
  <path fill="#CFC9BE" d="M 116 70 L 115 64 L 123 60 L 133 60 L 139 64 L 137 70 Q 136 72 133 72 L 121 72 Q 117 72 116 70 Z"/>

  <!-- Splitter dazwischen -->
  <path fill="#8B8478" d="M 100 88 L 106 82 L 112 86 L 110 92 Q 108 94 104 94 Z"/>
</svg>
