<svg xmlns="http://www.w3.org/2000/svg" viewBox="0 0 512 512" width="512" height="512">
  <!-- Wachstumsstufen des Buschs, ein Blatt je Stadium -->
  <!-- Stufe 1: Keimling, ein Halm mit zwei Blaettern -->
  <g transform="translate(0 0)">
    <ellipse cx="256" cy="468" rx="54" ry="11" fill="#7A9549"/>
    <path d="M 256 466 C 255 448 256 438 257 428" fill="none" stroke="#4E7434" stroke-width="7" stroke-linecap="round"/>
    <path d="M 257 434 C 242 430 234 422 232 410 C 248 412 256 422 258 432 Z" fill="#7AA84E" stroke="#4E7434" stroke-width="2"/>
    <path d="M 257 440 C 270 434 278 426 280 414 C 266 416 258 426 256 438 Z" fill="#7AA84E" stroke="#4E7434" stroke-width="2"/>
  </g>

  <!-- Stufe 2: Junger Busch, kleine Laubkugel -->
  <g transform="translate(128 0)">
    <ellipse cx="256" cy="468" rx="60" ry="12" fill="#7A9549"/>
    <g fill="#5E8A3E">
      <circle cx="238" cy="416" r="40"/>
      <circle cx="274" cy="412" r="38"/>
      <circle cx="256" cy="440" r="34"/>
    </g>
    <g fill="#7AA84E">
      <circle cx="246" cy="418" r="22"/>
      <circle cx="268" cy="422" r="20"/>
    </g>
  </g>

  <!-- Stufe 3: Voll entwickelt, breiter Busch mit Beeren -->
  <g transform="translate(256 0)">
    <ellipse cx="256" cy="468" rx="70" ry="13" fill="#7A9549"/>
    <g fill="#4E7434">
      <circle cx="220" cy="396" r="48"/>
      <circle cx="262" cy="378" r="52"/>
      <circle cx="300" cy="402" r="44"/>
      <circle cx="256" cy="424" r="40"/>
    </g>
    <g fill="#5E8A3E">
      <circle cx="236" cy="398" r="32"/>
      <circle cx="276" cy="394" r="34"/>
    </g>
    <g fill="#7AA84E">
      <circle cx="248" cy="386" r="20"/>
      <circle cx="272" cy="392" r="18"/>
    </g>
    <g fill="#C75B39">
      <circle cx="230" cy="416" r="7"/>
      <circle cx="262" cy="404" r="7"/>
      <circle cx="292" cy="418" r="7"/>
      <circle cx="250" cy="436" r="6"/>
    </g>
  </g>
</svg>
