<svg xmlns="http://www.w3.org/2000/svg" viewBox="0 0 192 72" width="192" height="72">
  <!-- Bär: gestapelte Papierschichten, Watschel-Gang in 4 Frames -->
  <!-- Frame 1: linker Pfote vor, Kopf hoch -->
  <g transform="translate(0 0)">
    <ellipse cx="24" cy="66" rx="18" ry="4" fill="#7A9549"/>
    <ellipse cx="25" cy="65" rx="16" ry="3.2" fill="#8FAB58"/>
    <ellipse cx="24" cy="52" rx="17" ry="13" fill="#6D4A31"/>
    <ellipse cx="22" cy="50" rx="15" ry="11" fill="#8A6240"/>
    <circle cx="20" cy="30" r="10" fill="#6D4A31"/>
    <circle cx="19" cy="29" r="9" fill="#8A6240"/>
    <circle cx="13" cy="22" r="3.4" fill="#6D4A31"/>
    <circle cx="12.4" cy="21.6" r="2.6" fill="#C89B6C"/>
    <circle cx="27" cy="21" r="3.4" fill="#6D4A31"/>
    <circle cx="26.4" cy="20.6" r="2.6" fill="#C89B6C"/>
    <ellipse cx="16" cy="31" rx="4.4" ry="3.4" fill="#C89B6C"/>
    <circle cx="14.6" cy="30" r="1.6" fill="#4A3220"/>
    <ellipse cx="24" cy="60" rx="4.4" ry="3" fill="#6D4A31" transform="rotate(-14 24 60)"/>
    <ellipse cx="34" cy="62" rx="4.4" ry="3" fill="#8A6240" transform="rotate(12 34 62)"/>
  </g>

  <!-- Frame 2: mittige Stellung, Kopf nach unten -->
  <g transform="translate(48 0)">
    <ellipse cx="24" cy="66" rx="18" ry="4" fill="#7A9549"/>
    <ellipse cx="25" cy="65" rx="16" ry="3.2" fill="#8FAB58"/>
    <ellipse cx="24" cy="54" rx="17" ry="13" fill="#6D4A31"/>
    <ellipse cx="22" cy="52" rx="15" ry="11" fill="#8A6240"/>
    <circle cx="20" cy="33" r="10" fill="#6D4A31"/>
    <circle cx="19" cy="32" r="9" fill="#8A6240"/>
    <circle cx="13" cy="25" r="3.4" fill="#6D4A31"/>
    <circle cx="12.4" cy="24.6" r="2.6" fill="#C89B6C"/>
    <circle cx="27" cy="24" r="3.4" fill="#6D4A31"/>
    <circle cx="26.4" cy="23.6" r="2.6" fill="#C89B6C"/>
    <ellipse cx="16" cy="34" rx="4.4" ry="3.4" fill="#C89B6C"/>
    <circle cx="14.6" cy="33" r="1.6" fill="#4A3220"/>
    <ellipse cx="22" cy="63" rx="4.4" ry="3" fill="#6D4A31" transform="rotate(-4 22 63)"/>
    <ellipse cx="28" cy="64" rx="4.4" ry="3" fill="#8A6240" transform="rotate(4 28 64)"/>
  </g>

  <!-- Frame 3: rechter Pfote vor, Kopf hoch, Rumpf kippt -->
  <g transform="translate(96 0)">
    <ellipse cx="24" cy="66" rx="18" ry="4" fill="#7A9549"/>
    <ellipse cx="25" cy="65" rx="16" ry="3.2" fill="#8FAB58"/>
    <ellipse cx="25" cy="52" rx="17" ry="13" fill="#6D4A31" transform="rotate(3 25 52)"/>
    <ellipse cx="23" cy="50" rx="15" ry="11" fill="#8A6240" transform="rotate(3 23 50)"/>
    <circle cx="21" cy="30" r="10" fill="#6D4A31"/>
    <circle cx="20" cy="29" r="9" fill="#8A6240"/>
    <circle cx="14" cy="22" r="3.4" fill="#6D4A31"/>
    <circle cx="13.4" cy="21.6" r="2.6" fill="#C89B6C"/>
    <circle cx="28" cy="21" r="3.4" fill="#6D4A31"/>
    <circle cx="27.4" cy="20.6" r="2.6" fill="#C89B6C"/>
    <ellipse cx="17" cy="31" rx="4.4" ry="3.4" fill="#C89B6C"/>
    <circle cx="15.6" cy="30" r="1.6" fill="#4A3220"/>
    <ellipse cx="16" cy="61" rx="4.4" ry="3" fill="#6D4A31" transform="rotate(8 16 61)"/>
    <ellipse cx="30" cy="62" rx="4.4" ry="3" fill="#8A6240" transform="rotate(14 30 62)"/>
  </g>

  <!-- Frame 4: mittige Stellung, Kopf tief -->
  <g transform="translate(144 0)">
    <ellipse cx="24" cy="66" rx="18" ry="4" fill="#7A9549"/>
    <ellipse cx="25" cy="65" rx="16" ry="3.2" fill="#8FAB58"/>
    <ellipse cx="24" cy="53" rx="17" ry="13" fill="#6D4A31"/>
    <ellipse cx="22" cy="51" rx="15" ry="11" fill="#8A6240"/>
    <circle cx="20" cy="32" r="10" fill="#6D4A31"/>
    <circle cx="19" cy="31" r="9" fill="#8A6240"/>
    <circle cx="13" cy="24" r="3.4" fill="#6D4A31"/>
    <circle cx="12.4" cy="23.6" r="2.6" fill="#C89B6C"/>
    <circle cx="27" cy="23" r="3.4" fill="#6D4A31"/>
    <circle cx="26.4" cy="22.6" r="2.6" fill="#C89B6C"/>
    <ellipse cx="16" cy="33" rx="4.4" ry="3.4" fill="#C89B6C"/>
    <circle cx="14.6" cy="32" r="1.6" fill="#4A3220"/>
    <ellipse cx="23" cy="63" rx="4.4" ry="3" fill="#6D4A31" transform="rotate(-6 23 63)"/>
    <ellipse cx="29" cy="64" rx="4.4" ry="3" fill="#8A6240" transform="rotate(6 29 64)"/>
  </g>
</svg>
